<svg xmlns="http://www.w3.org/2000/svg" width="12" height="46.993" viewBox="495 2.003 12 46.993"><path d="m497.072 2.533 9.818 22.003c.175.393.134.87-.075 1.2a.916.916 0 0 1-.224.247.735.735 0 0 1-.136.081 1.35 1.35 0 0 1-.002.07 1.277 1.277 0 0 1-.108.452l-9.818 21.883a1.142 1.142 0 0 1-.042.084c-.241.438-.707.576-1.076.302-.391-.29-.525-.935-.3-1.438l9.819-21.884a1.14 1.14 0 0 1 .041-.083c.06-.11.135-.2.219-.271a.697.697 0 0 1 .074-.057l-9.607-21.53c-.226-.507-.092-1.155.3-1.447.39-.292.891-.119 1.117.388Z" fill="rgba(255, 255, 255, 1)" fill-rule="evenodd" data-name="Rounded Rectangle 4 copy 7"/></svg>