<svg xmlns="http://www.w3.org/2000/svg" width="12" height="46.993" viewBox="2 2.003 12 46.993"><path d="M11.928 2.533 2.11 24.536c-.175.393-.134.87.075 1.2a.916.916 0 0 0 .224.247.735.735 0 0 0 .136.081 1.35 1.35 0 0 0 .002.07 1.277 1.277 0 0 0 .108.452l9.818 21.883a1.142 1.142 0 0 0 .042.084c.241.438.707.576 1.076.302.391-.29.525-.935.3-1.438L4.071 25.533a1.14 1.14 0 0 0-.041-.083.952.952 0 0 0-.22-.271.697.697 0 0 0-.073-.057l4.698-10.529 4.909-11.002c.226-.506.092-1.154-.3-1.446-.39-.292-.891-.119-1.117.388Z" fill="rgba(255, 255, 255, 1)" fill-rule="evenodd" data-name="Rounded Rectangle 4 copy 8"/></svg>